<?xml version="1.0" standalone="no"?>
<!DOCTYPE svg PUBLIC "-//W3C//DTD SVG 20010904//EN"
 "http://www.w3.org/TR/2001/REC-SVG-20010904/DTD/svg10.dtd">
<svg version="1.0" xmlns="http://www.w3.org/2000/svg"
 width="800.000000pt" height="800.000000pt" viewBox="0 0 800.000000 800.000000"
 preserveAspectRatio="xMidYMid meet">
<metadata>
Created by potrace 1.11, written by Peter Selinger 2001-2013
</metadata>
<g transform="translate(0.000000,800.000000) scale(0.100000,-0.100000)"
fill="#000000" stroke="none">
<path d="M0 4000 l0 -4000 4000 0 4000 0 0 4000 0 4000 -4000 0 -4000 0 0
-4000z m2538 2798 c2 -16 294 -515 649 -1110 355 -596 648 -1091 650 -1100 5
-16 -511 -888 -525 -888 -4 1 -419 690 -922 1533 -581 974 -916 1544 -918
1565 l-4 32 533 -2 534 -3 3 -27z m3992 3 c0 -16 -3185 -5339 -3210 -5364 -8
-9 -534 857 -533 877 0 6 600 1010 1333 2231 733 1221 1335 2232 1338 2248 l4
27 534 0 c519 0 534 -1 534 -19z m-4680 -1132 c0 -11 297 -515 660 -1120 l659
-1099 -262 -437 c-144 -240 -266 -436 -271 -437 -5 -1 -422 687 -928 1529
-631 1051 -918 1538 -918 1557 l0 28 530 0 530 0 0 -21z m5359 -16 c0 -18
-472 -813 -1337 -2253 l-1337 -2225 -534 -3 c-427 -2 -532 0 -528 10 2 7 602
1008 1333 2223 833 1387 1329 2222 1332 2243 l4 32 534 0 534 0 -1 -27z"/>
</g>
</svg>
