<?xml version="1.0" encoding="utf-8"?>
<!-- Generator: Adobe Illustrator 18.0.0, SVG Export Plug-In . SVG Version: 6.00 Build 0)  -->
<!DOCTYPE svg PUBLIC "-//W3C//DTD SVG 1.1//EN" "http://www.w3.org/Graphics/SVG/1.1/DTD/svg11.dtd">
<svg version="1.1" id="Layer_1" xmlns="http://www.w3.org/2000/svg" xmlns:xlink="http://www.w3.org/1999/xlink" x="0px" y="0px"
	 viewBox="0 0 450 200" enable-background="new 0 0 450 200" xml:space="preserve">
<g>
	<rect x="90.2" y="93" fill="#555555" width="32.6" height="14"/>
</g>
<g>
	<rect x="208.7" y="93" fill="#FF784A" width="32.6" height="14"/>
</g>
<g>
	<rect x="328.3" y="93" fill="none" stroke="#2F4FFF" stroke-miterlimit="10" width="32.6" height="14"/>
</g>
<g>
	<circle fill="#555555" cx="47.2" cy="100" r="47.2"/>
</g>
<g>
	<circle fill="#F6784A" cx="165.7" cy="100" r="47.2"/>
</g>
<g>
	<circle fill="#2F4FFF" cx="284.3" cy="100" r="47.2"/>
</g>
<g>
	<path fill="#FFFFFF" d="M402.8,145.7c-25.2,0-45.7-20.5-45.7-45.7s20.5-45.7,45.7-45.7s45.7,20.5,45.7,45.7S428,145.7,402.8,145.7z
		"/>
	<path fill="#42CC70" d="M402.8,55.8c24.4,0,44.2,19.8,44.2,44.2s-19.8,44.2-44.2,44.2s-44.2-19.8-44.2-44.2S378.4,55.8,402.8,55.8
		 M402.8,52.8c-26.1,0-47.2,21.2-47.2,47.2s21.2,47.2,47.2,47.2c26.1,0,47.2-21.2,47.2-47.2S428.8,52.8,402.8,52.8L402.8,52.8z"/>
</g>
<g>
	<path d="M414.9,112.8H412c-0.3,0-0.6-0.1-0.8-0.2c-0.2-0.2-0.4-0.4-0.5-0.6l-2.3-6h-11.4l-2.3,6c-0.1,0.2-0.2,0.4-0.4,0.6
		c-0.2,0.2-0.5,0.3-0.8,0.3h-2.9l10.2-25.6h3.7L414.9,112.8z M398.1,103.3h9.3l-3.9-10.1c-0.1-0.3-0.3-0.7-0.4-1.1
		c-0.1-0.4-0.3-0.9-0.4-1.4c-0.1,0.5-0.3,1-0.4,1.4c-0.1,0.4-0.3,0.8-0.4,1.1L398.1,103.3z"/>
</g>
<g>
	<path fill="#FFFFFF" d="M272.2,87.2h2.9c0.3,0,0.6,0.1,0.8,0.2s0.4,0.4,0.5,0.6l7,17.6c0.2,0.4,0.3,0.9,0.5,1.4
		c0.1,0.5,0.3,1,0.4,1.6c0.1-0.5,0.2-1.1,0.4-1.6c0.1-0.5,0.3-1,0.5-1.4l7-17.6c0.1-0.2,0.2-0.4,0.4-0.6s0.5-0.3,0.8-0.3h3
		L286,112.8h-3.3L272.2,87.2z"/>
</g>
<g>
	<path fill="#FFFFFF" d="M158,103.8c0,1.4-0.2,2.7-0.5,3.8c-0.4,1.1-0.9,2.1-1.6,2.9c-0.7,0.8-1.5,1.4-2.5,1.8
		c-1,0.4-2.2,0.6-3.5,0.6c-1.2,0-2.4-0.2-3.7-0.5l0.2-2.2c0-0.2,0.1-0.4,0.2-0.5c0.1-0.1,0.3-0.2,0.6-0.2c0.2,0,0.5,0.1,0.8,0.2
		c0.4,0.1,0.8,0.2,1.4,0.2c0.8,0,1.4-0.1,2-0.3c0.6-0.2,1.1-0.6,1.5-1.1c0.4-0.5,0.7-1.1,0.9-1.9c0.2-0.8,0.3-1.7,0.3-2.7V87.1h3.7
		V103.8z"/>
	<path fill="#FFFFFF" d="M161,87.1h2.9c0.3,0,0.6,0.1,0.8,0.2c0.2,0.2,0.4,0.4,0.5,0.6l7,17.6c0.2,0.4,0.3,0.9,0.5,1.4
		c0.1,0.5,0.3,1,0.4,1.6c0.1-0.5,0.2-1.1,0.4-1.6c0.1-0.5,0.3-1,0.5-1.4l7-17.6c0.1-0.2,0.2-0.4,0.4-0.6c0.2-0.2,0.5-0.3,0.8-0.3h3
		l-10.4,25.6h-3.3L161,87.1z"/>
</g>
<g>
	<path fill="#FFFFFF" d="M47.3,105.2c0.1-0.3,0.3-0.7,0.4-1c0.1-0.3,0.3-0.6,0.5-1l8.5-15.5c0.2-0.3,0.3-0.5,0.5-0.5
		c0.2-0.1,0.4-0.1,0.8-0.1h2.7v25.6h-3.2V94.4c0-0.3,0-0.5,0-0.8c0-0.3,0-0.6,0.1-0.9l-8.6,15.7c-0.1,0.3-0.3,0.5-0.5,0.6
		c-0.2,0.1-0.5,0.2-0.8,0.2H47c-0.6,0-1.1-0.3-1.3-0.8l-8.8-15.8c0,0.3,0,0.6,0.1,0.9c0,0.3,0,0.6,0,0.9v18.4h-3.2V87.2h2.7
		c0.3,0,0.6,0,0.8,0.1c0.2,0.1,0.4,0.2,0.5,0.5l8.7,15.5C46.7,103.9,47,104.5,47.3,105.2z"/>
</g>
</svg>
